<svg width="282" height="282" viewBox="0 0 282 282" fill="none" xmlns="http://www.w3.org/2000/svg">
<path fill-rule="evenodd" clip-rule="evenodd" d="M129.244 8.54102C136.254 3.44814 145.746 3.44814 152.756 8.54102L263.343 88.8876C270.353 93.9805 273.286 103.008 270.609 111.248L228.368 241.252C225.691 249.492 218.011 255.071 209.347 255.071H72.6531C63.9886 255.071 56.3095 249.492 53.632 241.252L11.3913 111.248C8.71383 103.008 11.647 93.9805 18.6567 88.8876L129.244 8.54102Z" fill="#217035"/>
<path d="M132.184 35.5859C137.441 31.7666 144.559 31.7666 149.816 35.5859L238.53 100.04C243.787 103.86 245.988 110.63 243.979 116.811L210.094 221.1C208.086 227.28 202.326 231.464 195.828 231.464H86.1719C79.6737 231.464 73.9144 227.28 71.9062 221.1L38.0205 116.811C36.0125 110.63 38.2126 103.86 43.4697 100.04L132.184 35.5859Z" stroke="white" stroke-width="10"/>
<path fill-rule="evenodd" clip-rule="evenodd" d="M125.177 88.8758C127.389 88.565 129.434 90.1059 129.745 92.3176C130.055 94.5293 128.514 96.5742 126.303 96.885L120.043 97.7648L120.972 104.379C121.283 106.591 119.742 108.636 117.53 108.946C115.319 109.257 113.274 107.716 112.963 105.505L112.033 98.8904L105.773 99.7703C103.561 100.081 101.517 98.5402 101.206 96.3285C100.895 94.1168 102.436 92.0719 104.647 91.7611L110.908 90.8812L110.078 84.975C109.767 82.7633 111.308 80.7184 113.519 80.4076C115.731 80.0967 117.776 81.6377 118.087 83.8493L118.917 89.7556L125.177 88.8758Z" fill="white"/>
<path fill-rule="evenodd" clip-rule="evenodd" d="M196.177 163.876C198.389 163.565 200.434 165.106 200.745 167.318C201.055 169.529 199.514 171.574 197.303 171.885L191.043 172.765L191.972 179.379C192.283 181.591 190.742 183.636 188.53 183.946C186.319 184.257 184.274 182.716 183.963 180.505L183.033 173.89L176.773 174.77C174.561 175.081 172.517 173.54 172.206 171.328C171.895 169.117 173.436 167.072 175.647 166.761L181.908 165.881L181.078 159.975C180.767 157.763 182.308 155.718 184.519 155.408C186.731 155.097 188.776 156.638 189.087 158.849L189.917 164.756L196.177 163.876Z" fill="white"/>
<path fill-rule="evenodd" clip-rule="evenodd" d="M154.4 40.0316L141.648 56.9534C137.39 62.6042 138.541 70.6536 144.219 74.9321L204.32 120.222C209.998 124.5 218.052 123.388 222.31 117.737L235.062 100.815L228.34 95.7496L215.589 112.671C214.115 114.627 211.326 115.013 209.361 113.532L149.26 68.242C147.294 66.761 146.896 63.9747 148.37 62.0186L161.122 45.0968L154.4 40.0316Z" fill="white"/>
<path fill-rule="evenodd" clip-rule="evenodd" d="M156.353 79.0686C150.86 89.8759 153.701 103.366 163.681 110.886C173.66 118.406 187.411 117.419 196.285 109.159L189.773 104.252C183.689 109.039 174.945 109.356 168.496 104.496C162.046 99.6365 159.941 91.1435 162.866 83.976L156.353 79.0686Z" fill="white"/>
<path fill-rule="evenodd" clip-rule="evenodd" d="M143.06 187.254C152.865 174.242 150.265 155.745 137.254 145.94C124.242 136.135 105.745 138.735 95.9402 151.746C86.1352 164.758 88.7348 183.255 101.746 193.06C114.758 202.865 133.255 200.265 143.06 187.254ZM102.384 156.602C109.507 147.149 122.945 145.261 132.398 152.384C141.851 159.507 143.739 172.945 136.616 182.398C129.493 191.851 116.055 193.739 106.602 186.616C97.1492 179.493 95.2606 166.055 102.384 156.602Z" fill="white"/>
<circle cx="119.5" cy="169.5" r="4.5" transform="rotate(37 119.5 169.5)" fill="white"/>
<path fill-rule="evenodd" clip-rule="evenodd" d="M144.95 123.404C146.278 121.642 145.921 119.133 144.153 117.801L133.473 109.753C131.705 108.421 129.195 108.769 127.868 110.531L127.794 110.632C126.554 112.387 126.93 114.827 128.664 116.133L130.649 117.629C101.13 120.516 74.2722 136.179 50.2004 164.409C48.7688 166.088 48.9742 168.613 50.659 170.048C52.3439 171.484 54.8702 171.286 56.3017 169.608C79.6341 142.244 105.287 127.589 133.393 125.421L131.086 128.482C129.758 130.244 130.115 132.753 131.883 134.085C133.651 135.417 136.16 135.068 137.488 133.306L144.95 123.404Z" fill="white"/>
<path d="M108.765 155.973C110.491 157.274 110.812 159.758 109.483 161.523C108.153 163.287 105.677 163.663 103.951 162.362L90.2348 152.027C88.5089 150.726 88.1876 148.242 89.5171 146.477C90.8465 144.713 93.3234 144.337 95.0494 145.638L108.765 155.973Z" fill="white"/>
<path d="M71.7652 126.973C73.4911 128.274 73.8124 130.758 72.4829 132.523C71.1535 134.287 68.6766 134.663 66.9506 133.362L53.2348 123.027C51.5089 121.726 51.1876 119.242 52.5171 117.477C53.8465 115.713 56.3234 115.337 58.0494 116.638L71.7652 126.973Z" fill="white"/>
<path d="M57.7652 115.973C59.4911 117.274 59.8124 119.758 58.4829 121.523C57.1535 123.287 54.6766 123.663 52.9506 122.362L39.2348 112.027C37.5089 110.726 37.1876 108.242 38.5171 106.477C39.8465 104.713 42.3234 104.337 44.0494 105.638L57.7652 115.973Z" fill="white"/>
<path d="M187.01 215.098C188.749 216.409 189.08 218.901 187.751 220.665C186.421 222.43 183.934 222.798 182.195 221.487L130.99 182.902C129.251 181.591 128.92 179.099 130.249 177.335C131.579 175.57 134.066 175.202 135.805 176.513L187.01 215.098Z" fill="white"/>
<path d="M200.01 225.098C201.749 226.409 202.08 228.901 200.751 230.665C199.421 232.43 196.934 232.798 195.195 231.487L143.99 192.902C142.251 191.591 141.92 189.099 143.249 187.335C144.579 185.57 147.066 185.202 148.805 186.513L200.01 225.098Z" fill="white"/>
</svg>
